# xmcd
#
# Track frame offsets: 
#        150
#        11781
#        35335
#        49777
#        67671
#        85892
#        110968
#        128146
#        141441
#        165715
#        179542
#        188903
#
# Disc length: 3029 seconds
#
# Revision: 0
# Processed by: cddbd v1.5.2PL0 Copyright (c) Steve Scherf et al.
# Submitted via: ExactAudioCopy v0.99pb4
#
DISCID=a90bd30c
DTITLE=Art 314   - The Race
DYEAR=2001
DGENRE=Blues
TTITLE0=The race
TTITLE1=Truth
TTITLE2=Spider on the blind
TTITLE3=Glad you aint mine
TTITLE4=Brightly visualizing you
TTITLE5=Makeshift love
TTITLE6=Fixin' the blues
TTITLE7=Trance mission
TTITLE8=Talk dirty, Act raunchy, Play funky
TTITLE9=Bo don't carry no trumpet player
TTITLE10=Ready to ride
TTITLE11=Down below down
EXTD=
EXTT0=
EXTT1=
EXTT2=
EXTT3=
EXTT4=
EXTT5=
EXTT6=
EXTT7=
EXTT8=
EXTT9=
EXTT10=
EXTT11=
PLAYORDER=
